# xmcd
#
# Track frame offsets:
#	150
#	15129
#	31253
#	47962
#	59966
#	77925
#	96394
#	112417
#	126880
#	140680
#	155587
#	174887
#
# Disc length: 2528 seconds
# Revision: 0
# Processed by: cddbd v1.5.2PL0 Copyright (c) Steve Scherf et al.
# Submitted via: dBpowerAMP V12.0
#
DISCID=aa09de0c
DTITLE=Larry Sparks - Almost Home
DYEAR=2011
DGENRE=Country
TTITLE0=Almost Home
TTITLE1=Blue Mountain Melody
TTITLE2=Lines on the Highway
TTITLE3=Momma's Apron Strings
TTITLE4=Gunfighter's Revenge
TTITLE5=Back Road
TTITLE6=There's More That Holds the Picture
TTITLE7=Picture Me There
TTITLE8=Send Me the Pillow You Dream On
TTITLE9=Bring 'em On Back
TTITLE10=Momma
TTITLE11=Somebody Touched Me
EXTD=
EXTT0=
EXTT1=
EXTT2=
EXTT3=
EXTT4=
EXTT5=
EXTT6=
EXTT7=
EXTT8=
EXTT9=
EXTT10=
EXTT11=
PLAYORDER=
